# xmcd CD database file
#
# Track frame offsets:
#	150
#	15387
#	34021
#	44155
#	58015
#	71148
#	83294
#	99170
#	112393
#	125540
#	138753
#	154435
#	166745
#	187834
#	209102
#	227740
#	248228
#	264831
#	281032
#	292553
#	307800
#
# Disc length: 4328 seconds
#
# Revision: 0
# Processed by: cddbd v1.5.2PL0 Copyright (c) Steve Scherf et al.
# Submitted via: ACXtractor (MTCDDB.DLL V2003.12.21)
#
DISCID=1f10e615
DTITLE=George Strait - One Step at a Time Astrodome
DYEAR=1997
DGENRE=Country
TTITLE0=Write This Down
TTITLE1=I Can Still Make Cheyenne
TTITLE2=Heartland
TTITLE3=Love without End
TTITLE4=Check Yes or No
TTITLE5=The Fireman
TTITLE6=Run
TTITLE7=The Chair
TTITLE8=She'll Leave you with a Smile
TTITLE9=Amarillo by Morning
TTITLE10=Living and Living Well
TTITLE11=Blue Clear Sky
TTITLE12=Maria
TTITLE13=Neon Row
TTITLE14=One Step at a Time
TTITLE15=Remember the Alamo
TTITLE16=That's the Breaks
TTITLE17=True
TTITLE18=We Really Shouldn't br Doing This
TTITLE19=Why not Now
TTITLE20=You Haven't left me Yet
EXTD=ID3G:   2 YEAR: 1997
EXTT0=
EXTT1=
EXTT2=
EXTT3=
EXTT4=
EXTT5=
EXTT6=
EXTT7=
EXTT8=
EXTT9=
EXTT10=
EXTT11=
EXTT12=
EXTT13=
EXTT14=
EXTT15=
EXTT16=
EXTT17=
EXTT18=
EXTT19=
EXTT20=
PLAYORDER=
